<?xml version="1.0" encoding="utf-8"?>
<!-- Generator: Adobe Illustrator 19.0.0, SVG Export Plug-In . SVG Version: 6.00 Build 0)  -->
<svg version="1.1" id="Layer_1" xmlns="http://www.w3.org/2000/svg" xmlns:xlink="http://www.w3.org/1999/xlink" x="0px" y="0px"
	 viewBox="-278 403.2 37.7 34.7" style="enable-background:new -278 403.2 37.7 34.7;" xml:space="preserve">
<style type="text/css">
	.st0{fill:#3CEA24;}
</style>
<g>
	<path class="st0" d="M-259.2,437.9c-0.2,0-0.4,0-0.6-0.1c-9.3-4.2-18.8-16.6-18.2-23.8c0.6-6.6,4.8-10.6,11.3-10.8
		c2.8-0.1,5.5,0.9,7.5,2.8c2-1.8,4.8-2.8,7.5-2.8c6.4,0.2,10.7,4.3,11.3,10.8c0.6,7.2-8.9,19.6-18.2,23.8
		C-258.7,437.8-258.9,437.9-259.2,437.9z M-266.4,406.2c-0.1,0-0.2,0-0.2,0c-2.3,0.1-7.8,1-8.4,8c-0.5,5.3,7.4,16.4,15.8,20.5
		c8.5-4.2,16.3-15.2,15.8-20.5c-0.6-7.1-6.1-8-8.4-8c-2.4-0.1-4.8,1-6.3,2.9c-0.3,0.4-0.7,0.6-1.2,0.6l0,0c-0.5,0-0.9-0.2-1.2-0.6
		C-261.8,407.2-264,406.2-266.4,406.2z"/>
</g>
</svg>
