<svg xmlns="http://www.w3.org/2000/svg" width="44.5" height="36.2" viewBox="0 0 44.5 36.2">
  <defs>
    <style>
      .cls-1 {
        fill: #32cdfd;
        fill-rule: evenodd;
      }
    </style>
  </defs>
  <path id="Shape_19_copy" data-name="Shape 19 copy" class="cls-1" d="M784.556,10772.6s18.295,11.7,33.518-4.8c3.61-3.9,6.224-9.7,6.433-18.4,0,0,3.329-2.4,4.57-4.8a13.435,13.435,0,0,1-5.158,1.5,9.669,9.669,0,0,0,3.983-5.2s-1.7,1.4-5.876,2.3a9.166,9.166,0,0,0-10.836-1.9c-6.724,3-4.766,10.3-4.766,10.3a24.9,24.9,0,0,1-18.8-9.7s-4.309,6.5,2.546,12.3a7.356,7.356,0,0,1-3.852-1.1s-0.848,7,7.181,9.1a8.893,8.893,0,0,1-3.982.2s0.718,5.1,8.421,6.4C797.938,10768.8,793.5,10773.1,784.556,10772.6Z" transform="translate(-784.563 -10740.4)"/>
</svg>
