<svg xmlns="http://www.w3.org/2000/svg" xmlns:xlink="http://www.w3.org/1999/xlink" width="122.282" height="156.6" viewBox="0 0 122.282 156.6">
  <defs>
    <style>
      .cls-1, .cls-2, .cls-4, .cls-5 {
        fill: #fe8900;
      }

      .cls-1, .cls-2, .cls-3, .cls-5 {
        fill-rule: evenodd;
      }

      .cls-1 {
        filter: url(#filter);
      }

      .cls-2 {
        filter: url(#filter-2);
      }

      .cls-3 {
        filter: url(#filter-3);
      }

      .cls-4 {
        filter: url(#filter-4);
      }

      .cls-5 {
        filter: url(#filter-5);
      }
    </style>
    <filter id="filter" x="785" y="10435" width="109" height="142" filterUnits="userSpaceOnUse">
      <feFlood result="flood" flood-color="#fff"/>
      <feComposite result="composite" operator="in" in2="SourceGraphic"/>
      <feBlend result="blend" in2="SourceGraphic"/>
    </filter>
    <filter id="filter-2" x="802.719" y="10471.9" width="31.344" height="31.4" filterUnits="userSpaceOnUse">
      <feFlood result="flood" flood-color="#fe8900"/>
      <feComposite result="composite" operator="in" in2="SourceGraphic"/>
      <feBlend result="blend" in2="SourceGraphic"/>
    </filter>
    <filter id="filter-3" x="818.25" y="10532.4" width="43.125" height="21.6" filterUnits="userSpaceOnUse">
      <feFlood result="flood" flood-color="#fe8900"/>
      <feComposite result="composite" operator="in" in2="SourceGraphic"/>
      <feBlend result="blend" in2="SourceGraphic"/>
    </filter>
    <filter id="filter-4" x="65.969" y="56.4" width="31" height="11" filterUnits="userSpaceOnUse">
      <feFlood result="flood" flood-color="#fe8900"/>
      <feComposite result="composite" operator="in" in2="SourceGraphic"/>
      <feBlend result="blend" in2="SourceGraphic"/>
    </filter>
    <filter id="filter-5" x="778.031" y="10425.6" width="122.282" height="156.6" filterUnits="userSpaceOnUse">
      <feFlood result="flood" flood-color="#fe8900"/>
      <feComposite result="composite" operator="in" in2="SourceGraphic"/>
      <feBlend result="blend" in2="SourceGraphic"/>
    </filter>
  </defs>
  <path class="cls-1" d="M838,10435l-53,21,4,54,24,55,20,12,27-8,21-30,10-38,3-44-55-20Z" transform="translate(-778.031 -10425.6)"/>
  <path id="Ellipse_3_copy_8" data-name="Ellipse 3 copy 8" class="cls-2" d="M818.391,10471.9a15.7,15.7,0,1,1-15.672,15.7A15.731,15.731,0,0,1,818.391,10471.9Zm0,10.9a4.8,4.8,0,1,1-4.829,4.8A4.783,4.783,0,0,1,818.391,10482.8Z" transform="translate(-778.031 -10425.6)"/>
  <path id="Ellipse_2_copy_26" data-name="Ellipse 2 copy 26" class="cls-3" d="M861.375,10532.4a21.563,21.563,0,1,1-43.125,0m32.156,0a10.578,10.578,0,1,1-21.156,0" transform="translate(-778.031 -10425.6)"/>
  <rect id="Rectangle_3_copy_67" data-name="Rectangle 3 copy 67" class="cls-4" x="65.969" y="56.4" width="31" height="11"/>
  <path id="Shape_9_copy_77" data-name="Shape 9 copy 77" class="cls-5" d="M900.294,10449.7s-46.212-13.8-61.463-24.1c0,0-12.936,9-60.731,24.1,0,0-4.056,132.5,61.771,132.5C904.135,10582.2,900.294,10449.7,900.294,10449.7Zm-14.153,10.1s-35.625-11.3-47.657-18c0,0-16.75,8.3-46.241,18,0,0-.007,110.1,48.6,108.4C885.7,10566.7,886.141,10459.8,886.141,10459.8Z" transform="translate(-778.031 -10425.6)"/>
</svg>
