<svg xmlns="http://www.w3.org/2000/svg" width="237" height="145.031" viewBox="0 0 237 145.031">
  <defs>
    <style>
      .cls-1 {
        fill: #21df35;
        fill-rule: evenodd;
      }
    </style>
  </defs>
  <path class="cls-1" d="M115.286,200.733h-3.764a1.779,1.779,0,0,1-1.029-.289,1.842,1.842,0,0,1-.576-0.781l-1.584-4.465h-9.36l-1.584,4.465a1.622,1.622,0,0,1-.576.74,1.485,1.485,0,0,1-1.008.33H92l9.175-23.475h4.958Zm-15.14-8.909h6.994l-2.53-7.18c-0.165-.391-0.309-0.823-0.474-1.337-0.185-.494-0.349-1.05-0.514-1.626-0.144.6-.288,1.132-0.452,1.646s-0.33.967-.473,1.338Zm33.119-1.275c0.186,0.37.371,0.761,0.556,1.152,0.164,0.411.35,0.823,0.494,1.234,0.164-.432.349-0.843,0.534-1.255s0.371-.8.576-1.173l6.521-12.488a1.963,1.963,0,0,1,.309-0.432,1.271,1.271,0,0,1,.35-0.226,2.373,2.373,0,0,1,.411-0.082,4.571,4.571,0,0,1,.556-0.021h3.7v23.475h-4.3v-14.4c0-.309.021-0.617,0.021-0.967,0.02-.35.041-0.7,0.082-1.07l-6.706,12.735a1.794,1.794,0,0,1-1.687,1.05h-0.679a1.8,1.8,0,0,1-1.008-.268,1.866,1.866,0,0,1-.7-0.782l-6.748-12.755c0.041,0.37.062,0.72,0.082,1.07s0.042,0.678.042,0.987v14.4h-4.3V177.258h3.7a4.055,4.055,0,0,1,.535.021,2.291,2.291,0,0,1,.432.082,1.286,1.286,0,0,1,.35.226,1.467,1.467,0,0,1,.288.432Zm35.527-8.785a1.507,1.507,0,0,1-.453.535,0.955,0.955,0,0,1-.617.164,1.558,1.558,0,0,1-.761-0.247c-0.267-.164-0.6-0.349-0.967-0.535a9.1,9.1,0,0,0-1.255-.555,5.061,5.061,0,0,0-1.666-.247,3.651,3.651,0,0,0-2.53.761,2.519,2.519,0,0,0-.844,1.975,1.843,1.843,0,0,0,.474,1.276,4.31,4.31,0,0,0,1.213.885,10.273,10.273,0,0,0,1.708.658c0.637,0.206,1.275.411,1.954,0.638A17.719,17.719,0,0,1,167,187.9a6.616,6.616,0,0,1,1.708,1.172,5.129,5.129,0,0,1,1.213,1.749,6.04,6.04,0,0,1,.453,2.489,7.668,7.668,0,0,1-.555,3,7.237,7.237,0,0,1-1.6,2.448,7.539,7.539,0,0,1-2.592,1.646,9.812,9.812,0,0,1-3.5.6,11.472,11.472,0,0,1-2.222-.226,12.66,12.66,0,0,1-4.073-1.6,8.181,8.181,0,0,1-1.584-1.255l1.419-2.3a1.6,1.6,0,0,1,.474-0.432,1.255,1.255,0,0,1,.617-0.165,1.536,1.536,0,0,1,.905.329c0.329,0.206.7,0.453,1.131,0.7a8.8,8.8,0,0,0,1.461.72,5.7,5.7,0,0,0,2,.329,4.014,4.014,0,0,0,2.633-.782,2.86,2.86,0,0,0,.926-2.325,2.2,2.2,0,0,0-.452-1.44,4,4,0,0,0-1.214-.905,10.186,10.186,0,0,0-1.708-.658c-0.637-.165-1.275-0.371-1.954-0.576a17.884,17.884,0,0,1-1.954-.782,6.58,6.58,0,0,1-1.708-1.193,5.655,5.655,0,0,1-1.193-1.852,7.031,7.031,0,0,1-.473-2.736,6.422,6.422,0,0,1,.535-2.531,6.086,6.086,0,0,1,1.522-2.181,7.45,7.45,0,0,1,2.469-1.543,8.877,8.877,0,0,1,3.353-.576,11.462,11.462,0,0,1,3.909.638,9.088,9.088,0,0,1,3.065,1.831Zm25.652-4.506v3.93h-6.85v19.545h-4.875V181.188h-6.871v-3.93h18.6Zm21.785,0v3.806H206.17v6.028h7.838v3.683H206.17v6.172h10.059v3.786H201.3V177.258h14.934Zm12.4,14.525v8.95h-4.855V177.258h7.385a14.848,14.848,0,0,1,4.2.514,7.626,7.626,0,0,1,2.859,1.42,5.429,5.429,0,0,1,1.646,2.16,7.4,7.4,0,0,1,.514,2.757,6.869,6.869,0,0,1-1.3,4.115A7.305,7.305,0,0,1,235.4,190.8a4.636,4.636,0,0,1,.884.638,3.38,3.38,0,0,1,.741.864l5.472,8.436h-4.382a1.93,1.93,0,0,1-1.79-.926l-4.464-7.2a1.719,1.719,0,0,0-.6-0.617,2.072,2.072,0,0,0-.987-0.206h-1.646Zm0-3.415h2.489a6.073,6.073,0,0,0,2.036-.288,3.974,3.974,0,0,0,1.42-.823,3.549,3.549,0,0,0,.8-1.235,4.778,4.778,0,0,0,.247-1.563,3.175,3.175,0,0,0-1.09-2.592,5.2,5.2,0,0,0-3.374-.906h-2.53v7.407Zm41.122,0.617a12.579,12.579,0,0,1-.864,4.732,10.5,10.5,0,0,1-2.448,3.724,11.092,11.092,0,0,1-3.785,2.427,13.487,13.487,0,0,1-4.917.865h-9.031V177.258h9.031a13.063,13.063,0,0,1,4.917.885,10.76,10.76,0,0,1,6.233,6.151,12.443,12.443,0,0,1,.864,4.691h0Zm-4.979,0a10.467,10.467,0,0,0-.493-3.312,6.791,6.791,0,0,0-1.379-2.49,6.126,6.126,0,0,0-2.221-1.563,7.416,7.416,0,0,0-2.942-.556h-4.135v15.883h4.135a7.416,7.416,0,0,0,2.942-.556,6.126,6.126,0,0,0,2.221-1.563,7.066,7.066,0,0,0,1.379-2.51,10.334,10.334,0,0,0,.493-3.333h0Zm32.256,11.748h-3.764a1.737,1.737,0,0,1-1.029-.289,1.891,1.891,0,0,1-.6-0.781L290.06,195.2h-9.34l-1.584,4.465a1.949,1.949,0,0,1-.576.74,1.521,1.521,0,0,1-1.008.33h-3.805l9.174-23.475h4.958Zm-15.14-8.909h6.994l-2.551-7.18c-0.144-.391-0.308-0.823-0.473-1.337-0.165-.494-0.329-1.05-0.494-1.626-0.144.6-.308,1.132-0.473,1.646s-0.308.967-.452,1.338Zm33.1-1.275a11.617,11.617,0,0,1,.555,1.152c0.185,0.411.35,0.823,0.515,1.234,0.164-.432.329-0.843,0.514-1.255s0.391-.8.6-1.173l6.5-12.488a1.963,1.963,0,0,1,.309-0.432,1.678,1.678,0,0,1,.349-0.226,2.291,2.291,0,0,1,.432-0.082,4.231,4.231,0,0,1,.556-0.021H329v23.475h-4.279v-14.4c0-.309,0-0.617.021-0.967s0.041-.7.061-1.07l-6.685,12.735a1.8,1.8,0,0,1-1.708,1.05h-0.679a1.78,1.78,0,0,1-.987-0.268,1.632,1.632,0,0,1-.7-0.782L307.3,184.274c0.021,0.37.062,0.72,0.083,1.07s0.02,0.678.02,0.987v14.4h-4.279V177.258h3.683a4.562,4.562,0,0,1,.555.021,2.26,2.26,0,0,1,.432.082,0.942,0.942,0,0,1,.329.226,1.963,1.963,0,0,1,.309.432Z" transform="translate(-92 -55.969)"/>
  <path class="cls-1" d="M214.678,74.027a64.655,64.655,0,0,0-4.189-4.981c-1.39,1.515-2.8,3.175-4.168,4.981,2.778-.124,5.578-0.124,8.357,0h0Zm-6.615-7.472c-3.111-2.968-10.369-8.966-14.579-6.538h0c-4.188,2.428-2.654,11.706-1.617,15.9a75.333,75.333,0,0,1,9.891-1.578,75.453,75.453,0,0,1,6.3-7.783h0Zm13.727,34.309a62.224,62.224,0,0,0,6.408-1.142c-0.6-1.972-1.348-4.006-2.219-6.123-1.285,2.491-2.675,4.919-4.189,7.265h0Zm-2.55,3.8a75.424,75.424,0,0,1-6.3,7.783c0.954,0.913,1.908,1.743,2.841,2.491,4.811,3.9,9.1,5.562,11.716,4.047h0c4.21-2.428,2.654-11.706,1.638-15.9a75.247,75.247,0,0,1-9.891,1.578h0Zm-8.751,10.274c-4.355,4.171-12.691,10.564-18.746,7.056h0c-6.035-3.507-4.687-13.906-3.256-19.779C182.7,100.531,173,96.5,173,89.51c0-7.015,9.7-11.042,15.491-12.723-1.431-5.874-2.8-16.293,3.256-19.78h0.02c6.035-3.508,14.371,2.885,18.726,7.057,4.375-4.172,12.691-10.564,18.746-7.057h0c6.055,3.508,4.707,13.906,3.256,19.78C238.3,78.469,248,82.5,248,89.51c0,6.995-9.705,11.021-15.511,12.7,1.451,5.873,2.8,16.293-3.256,19.779h0c-3.982,2.3-9.684.478-15.656-4.337-1.017-.81-2.053-1.723-3.09-2.719h0ZM189.42,98.85a77.224,77.224,0,0,1,3.587-9.361,75.685,75.685,0,0,1-3.587-9.34c-4.127,1.2-12.94,4.483-12.94,9.361,0,4.857,8.813,8.136,12.94,9.34h0Zm5.6-13.449c1.286-2.491,2.675-4.919,4.189-7.264-2.26.291-4.417,0.685-6.429,1.142,0.622,1.972,1.369,4.026,2.24,6.123h0Zm36.559-5.251a79.453,79.453,0,0,1-3.587,9.361,79.207,79.207,0,0,1,3.587,9.34c4.127-1.2,12.919-4.483,12.919-9.34,0-4.877-8.792-8.157-12.919-9.361h0Zm-23.515,32.3a75.428,75.428,0,0,1-6.3-7.783,75.247,75.247,0,0,1-9.891-1.578c-1.016,4.193-2.592,13.471,1.617,15.9h0c4.21,2.428,11.468-3.57,14.579-6.538h0Zm2.426-2.491a64.137,64.137,0,0,0,4.189-4.96c-2.779.1-5.579,0.1-8.357,0,1.368,1.785,2.778,3.466,4.168,4.96h0Zm6.843-8.634a91.6,91.6,0,0,0,6.822-11.83,91.367,91.367,0,0,0-6.822-11.81,88.335,88.335,0,0,0-13.666,0,91.719,91.719,0,0,0-6.822,11.831,91.475,91.475,0,0,0,6.822,11.81,88.31,88.31,0,0,0,13.666,0h0ZM225.979,85.4c0.871-2.1,1.618-4.151,2.219-6.123-2.011-.457-4.147-0.851-6.408-1.142,1.514,2.345,2.9,4.774,4.189,7.264h0Zm3.152-9.485c1.016-4.193,2.572-13.47-1.617-15.9h-0.021c-4.189-2.428-11.447,3.57-14.557,6.538a75.449,75.449,0,0,1,6.3,7.783,75.333,75.333,0,0,1,9.891,1.578h0ZM195.019,93.6c-0.871,2.117-1.618,4.151-2.24,6.144,2.012,0.456,4.169.83,6.408,1.121-1.493-2.346-2.882-4.774-4.168-7.265h0Zm13.728-14.28,1.742,1.764,1.762-1.764,1.431,1.432-1.742,1.764,1.742,1.764-1.431,1.432-1.762-1.764-1.742,1.764L207.3,84.28l1.763-1.764L207.3,80.752Zm4.935,15.421-1.742,1.743,1.742,1.764-1.431,1.432-1.762-1.743-1.742,1.743L207.3,98.248l1.763-1.764L207.3,94.741l1.452-1.453,1.742,1.764,1.762-1.764Zm0-6.995L211.94,89.51l1.742,1.743-1.431,1.432-1.762-1.744-1.742,1.744L207.3,91.254l1.763-1.743L207.3,87.746l1.452-1.432,1.742,1.743,1.762-1.743Z" transform="translate(-92 -55.969)"/>
  <path class="cls-1" d="M161.438,154.563v8.2H157V141.236h6.739a13.878,13.878,0,0,1,3.841.474,7.466,7.466,0,0,1,2.63,1.3,4.919,4.919,0,0,1,1.479,1.977,6.323,6.323,0,0,1,.473,2.534,7.252,7.252,0,0,1-.288,2.018,6.654,6.654,0,0,1-.883,1.751,6.436,6.436,0,0,1-1.418,1.38,7.243,7.243,0,0,1-1.951.989,5.4,5.4,0,0,1,.821.577,3.062,3.062,0,0,1,.658.782l5.013,7.745h-4.027a1.755,1.755,0,0,1-1.623-.865l-4.068-6.591a1.856,1.856,0,0,0-.555-0.577,2.078,2.078,0,0,0-.9-0.165h-1.5Zm0-3.131h2.26a5.584,5.584,0,0,0,1.87-.288,3.453,3.453,0,0,0,1.294-.742,3.167,3.167,0,0,0,.74-1.133,4.47,4.47,0,0,0,.226-1.421,2.942,2.942,0,0,0-1.007-2.389,4.787,4.787,0,0,0-3.081-.845h-2.3v6.818Zm32.441-10.2v3.481h-9.2v5.541h7.17v3.358h-7.17v5.664h9.2v3.481H180.217V141.236h13.662Zm26.113,21.525H216.54a1.539,1.539,0,0,1-.924-0.268,1.816,1.816,0,0,1-.555-0.7l-1.438-4.12h-8.567l-1.438,4.12a1.709,1.709,0,0,1-.514.659,1.45,1.45,0,0,1-.945.309h-3.472l8.382-21.525h4.541Zm-13.847-8.177h6.389l-2.321-6.571q-0.216-.525-0.432-1.236c-0.164-.453-0.308-0.948-0.452-1.483-0.144.535-.288,1.05-0.431,1.5q-0.216.709-.432,1.235Zm33.776,2.883a0.856,0.856,0,0,1,.637.268l1.746,1.875a8.285,8.285,0,0,1-3.226,2.533,11.186,11.186,0,0,1-4.6.865,10.858,10.858,0,0,1-4.335-.844,9.193,9.193,0,0,1-3.266-2.287A10.5,10.5,0,0,1,224.8,156.4a13.121,13.121,0,0,1-.719-4.408,13.32,13.32,0,0,1,.349-3.048,11.662,11.662,0,0,1,1.006-2.657,10.709,10.709,0,0,1,1.623-2.2,10.524,10.524,0,0,1,2.117-1.669,10.323,10.323,0,0,1,2.588-1.05,11.487,11.487,0,0,1,2.979-.35,11.127,11.127,0,0,1,2.24.206,9.93,9.93,0,0,1,1.972.576,9.037,9.037,0,0,1,3.082,2.039l-1.479,2.06a1.784,1.784,0,0,1-.35.33,0.924,0.924,0,0,1-.554.144,1.258,1.258,0,0,1-.719-0.247c-0.247-.165-0.535-0.35-0.884-0.556a8.009,8.009,0,0,0-1.315-.577,6.965,6.965,0,0,0-2.013-.247,6,6,0,0,0-2.466.494,5.3,5.3,0,0,0-1.931,1.421,6.536,6.536,0,0,0-1.253,2.266,9.546,9.546,0,0,0-.452,3.069,9.016,9.016,0,0,0,.493,3.09,6.836,6.836,0,0,0,1.315,2.307,5.429,5.429,0,0,0,1.952,1.4,5.819,5.819,0,0,0,2.383.494,9.427,9.427,0,0,0,1.376-.082,4.791,4.791,0,0,0,1.13-.248,6.164,6.164,0,0,0,1.007-.453,5.637,5.637,0,0,0,.925-0.721,2.048,2.048,0,0,1,.349-0.226,0.748,0.748,0,0,1,.37-0.083h0ZM264,141.236v3.584h-6.267v17.941h-4.458V144.82h-6.266v-3.584H264Z" transform="translate(-92 -55.969)"/>
</svg>
