<?xml version="1.0" encoding="utf-8"?><svg xmlns="http://www.w3.org/2000/svg" xmlns:xlink="http://www.w3.org/1999/xlink"><symbol viewBox="0 0 36.968 18.44" id="adv_style" xmlns="http://www.w3.org/2000/svg"><defs><style>.acls-1{fill:#3cea24;fill-rule:evenodd}</style></defs><path id="aEllipse_2_copy_26" data-name="Ellipse 2 copy 26" class="acls-1" d="M420.906 6775.58a18.485 18.485 0 0 1-36.969 0m27.563 0a9.063 9.063 0 0 1-18.125 0" transform="translate(-383.938 -6775.56)"/></symbol><symbol id="heart" viewBox="-278 403.2 37.7 34.7" xmlns="http://www.w3.org/2000/svg"><style>.bst0{fill:#3cea24}</style><path class="bst0" d="M-259.2 437.9c-.2 0-.4 0-.6-.1-9.3-4.2-18.8-16.6-18.2-23.8.6-6.6 4.8-10.6 11.3-10.8 2.8-.1 5.5.9 7.5 2.8 2-1.8 4.8-2.8 7.5-2.8 6.4.2 10.7 4.3 11.3 10.8.6 7.2-8.9 19.6-18.2 23.8-.1 0-.3.1-.6.1zm-7.2-31.7h-.2c-2.3.1-7.8 1-8.4 8-.5 5.3 7.4 16.4 15.8 20.5 8.5-4.2 16.3-15.2 15.8-20.5-.6-7.1-6.1-8-8.4-8-2.4-.1-4.8 1-6.3 2.9-.3.4-.7.6-1.2.6s-.9-.2-1.2-.6c-1.3-1.9-3.5-2.9-5.9-2.9z"/></symbol><symbol viewBox="0 0 27.5 17" id="nav_left" xmlns="http://www.w3.org/2000/svg"><defs><style>.ccls-1{fill:#4e4e4e;fill-rule:evenodd}</style></defs><path id="cShape_17_copy" data-name="Shape 17 copy" class="ccls-1" d="M1265 8757h-23.66l6.07 6.07-1.41 1.41-8.49-8.48 8.49-8.49 1.41 1.42-6.07 6.07H1265v2z" transform="translate(-1237.5 -8747.5)"/></symbol><symbol viewBox="0 0 27.5 17" id="nav_right" xmlns="http://www.w3.org/2000/svg"><defs><style>.dcls-1{fill:#4e4e4e;fill-rule:evenodd}</style></defs><path class="dcls-1" d="M19 16.98l-1.41-1.41 6.07-6.07H0v-2h23.66l-6.07-6.07L19 .01l8.49 8.49z"/></symbol><symbol viewBox="0 0 18.5 18.44" id="package-no" xmlns="http://www.w3.org/2000/svg"><defs><style>.ecls-1{fill:#1bce7c;fill-rule:evenodd;filter:url(#efilter)}</style><filter id="efilter" x="870.25" y="5311.28" width="18.5" height="18.44" filterUnits="userSpaceOnUse"><feFlood result="flood" flood-color="#4e4e4e"/><feComposite result="composite" operator="in" in2="SourceGraphic"/><feBlend result="blend" in2="SourceGraphic"/></filter></defs><path id="eShape_12_copy_21" data-name="Shape 12 copy 21" class="ecls-1" d="M872.372 5329.65l7.119-7.03 7.03 7.11 2.137-2.11-7.03-7.1 7.119-7.03-2.109-2.12-7.119 7.02-7.03-7.11-2.137 2.11 7.03 7.1-7.119 7.03z" transform="translate(-870.25 -5311.28)"/></symbol><symbol viewBox="0 0 27.562 19.09" id="package-yes" xmlns="http://www.w3.org/2000/svg"><defs><style>.fcls-1{fill:#00dd3b;fill-rule:evenodd;filter:url(#ffilter)}</style><filter id="ffilter" x="869.219" y="5139.19" width="27.562" height="19.09" filterUnits="userSpaceOnUse"><feFlood result="flood" flood-color="#3cea24"/><feComposite result="composite" operator="in" in2="SourceGraphic"/><feBlend result="blend" in2="SourceGraphic"/></filter></defs><path class="fcls-1" d="M-.008 8.49L10.599 19.1 27.57 2.13 25.448.01 10.599 14.85 2.114 6.37z"/></symbol><symbol viewBox="0 0 21 44" id="socials_fb" xmlns="http://www.w3.org/2000/svg"><defs><style>.gcls-1{fill:#3b5998;fill-rule:evenodd}</style></defs><path id="gShape_20_copy_9" data-name="Shape 20 copy 9" class="gcls-1" d="M891.008 10736h-6.647s-8.475-.8-8.358 7.7l-.014 6.3H870l.013 7.9H876l.007 22.1H884v-22.1h6.06l.715-8H884l-.031-4.6a1.976 1.976 0 0 1 2.219-1.9h4.813v-7.4z" transform="translate(-870 -10736)"/></symbol><symbol viewBox="0 0 44.5 36.2" id="socials_tw" xmlns="http://www.w3.org/2000/svg"><defs><style>.hcls-1{fill:#32cdfd;fill-rule:evenodd}</style></defs><path id="hShape_19_copy" data-name="Shape 19 copy" class="hcls-1" d="M784.556 10772.6s18.295 11.7 33.518-4.8c3.61-3.9 6.224-9.7 6.433-18.4 0 0 3.329-2.4 4.57-4.8a13.435 13.435 0 0 1-5.158 1.5 9.669 9.669 0 0 0 3.983-5.2s-1.7 1.4-5.876 2.3a9.166 9.166 0 0 0-10.836-1.9c-6.724 3-4.766 10.3-4.766 10.3a24.9 24.9 0 0 1-18.8-9.7s-4.309 6.5 2.546 12.3a7.356 7.356 0 0 1-3.852-1.1s-.848 7 7.181 9.1a8.893 8.893 0 0 1-3.982.2s.718 5.1 8.421 6.4c0 0-4.438 4.3-13.382 3.8z" transform="translate(-784.563 -10740.4)"/></symbol></svg>